<?xml version="1.0" standalone="no"?>
<!DOCTYPE svg PUBLIC "-//W3C//DTD SVG 20010904//EN"
 "http://www.w3.org/TR/2001/REC-SVG-20010904/DTD/svg10.dtd">
<svg version="1.0" xmlns="http://www.w3.org/2000/svg"
 width="800.000000pt" height="800.000000pt" viewBox="0 0 800.000000 800.000000"
 preserveAspectRatio="xMidYMid meet">

<g transform="translate(0.000000,800.000000) scale(0.100000,-0.100000)"
fill="#000000" stroke="none">
<path d="M0 4000 l0 -4000 4000 0 4000 0 0 4000 0 4000 -4000 0 -4000 0 0
-4000z m6790 0 l0 -2790 -2790 0 -2790 0 0 2790 0 2790 2790 0 2790 0 0 -2790z"/>
<path d="M1470 3995 l0 -2535 2533 2 2532 3 3 2533 2 2532 -2535 0 -2535 0 0
-2535z m1380 585 l0 -140 -160 0 -160 0 0 -545 0 -545 -160 0 -160 0 0 545 0
545 -165 0 -165 0 0 140 0 140 485 0 485 0 0 -140z m715 129 c169 -31 291
-143 324 -297 42 -201 -42 -392 -208 -471 l-59 -28 37 -44 c21 -24 126 -151
234 -281 l197 -238 -202 0 -203 1 -200 261 -200 260 -3 -261 -2 -261 -160 0
-160 0 0 685 0 685 273 0 c153 0 299 -5 332 -11z m895 -674 l0 -685 -160 0
-160 0 0 685 0 685 160 0 160 0 0 -685z m729 298 c80 -211 149 -383 152 -383
3 0 72 173 154 385 l148 385 168 0 c93 0 169 -3 169 -7 0 -5 27 -307 60 -673
33 -366 60 -671 60 -677 0 -10 -38 -13 -158 -13 l-158 0 -28 368 c-16 202 -31
383 -35 402 -6 33 -10 26 -53 -100 -26 -74 -88 -253 -138 -397 l-92 -263 -97
0 -96 0 -140 402 c-77 220 -141 395 -142 387 -3 -17 -63 -771 -63 -787 0 -9
-46 -12 -160 -12 l-161 0 6 48 c9 74 115 1272 115 1299 l0 23 171 -2 172 -3
146 -382z"/>
<path d="M3280 4290 l0 -183 74 7 c125 11 161 28 194 91 20 39 20 131 0 170
-32 60 -74 80 -193 91 l-75 7 0 -183z"/>
</g>
</svg>
