<?xml version="1.0" standalone="no"?>
<!DOCTYPE svg PUBLIC "-//W3C//DTD SVG 20010904//EN"
 "http://www.w3.org/TR/2001/REC-SVG-20010904/DTD/svg10.dtd">
<svg version="1.0" xmlns="http://www.w3.org/2000/svg"
 width="1024.000000pt" height="1024.000000pt" viewBox="0 0 1024.000000 1024.000000"
 preserveAspectRatio="xMidYMid meet">

<g transform="translate(0.000000,1024.000000) scale(0.100000,-0.100000)"
fill="#000000" stroke="none">
<path d="M0 5120 l0 -5120 5120 0 5120 0 0 5120 0 5120 -5120 0 -5120 0 0
-5120z m9150 0 l0 -3890 -4030 0 -4030 0 0 3890 0 3890 4030 0 4030 0 0 -3890z"/>
<path d="M1318 5120 l-3 -3660 3808 0 3807 0 -3 3658 -3 3657 -3802 3 -3802 2
-2 -3660z m4145 2682 c188 -131 439 -305 557 -387 118 -82 377 -261 575 -399
198 -137 386 -268 418 -291 l59 -40 -307 -3 -306 -2 -247 167 c-220 149 -867
591 -1029 703 l-61 43 -324 -220 c-177 -121 -433 -296 -568 -390 -135 -93
-290 -200 -345 -237 l-101 -66 -308 2 -308 3 138 96 c294 203 1000 691 1429
989 138 96 279 195 315 221 36 26 66 48 68 48 2 1 157 -106 345 -237z m-2043
-1927 l0 -185 -215 0 -215 0 0 -690 0 -690 -210 0 -210 0 0 690 0 690 -225 0
-225 0 0 185 0 185 650 0 650 0 0 -185z m1102 171 c280 -54 448 -252 448 -527
0 -163 -50 -288 -155 -395 -37 -37 -87 -75 -127 -95 l-67 -34 27 -40 c47 -69
368 -558 396 -602 l26 -43 -242 0 -243 1 -199 319 -198 320 -54 0 -54 0 0
-320 0 -320 -210 0 -210 0 0 875 0 875 394 0 c297 0 412 -3 468 -14z m1218
-861 l0 -875 -215 0 -215 0 0 875 0 875 215 0 215 0 0 -875z m1047 415 c111
-250 213 -479 226 -509 l23 -54 164 369 c89 203 191 432 225 509 l63 140 266
3 266 2 0 -875 0 -875 -200 0 -200 0 0 563 0 562 -114 -250 c-63 -137 -161
-351 -218 -475 l-104 -225 -145 -2 -144 -3 -53 118 c-30 64 -126 278 -215 475
l-162 359 -3 -561 -2 -561 -198 2 c-108 2 -196 6 -194 11 1 4 2 396 2 872 l0
865 258 -2 257 -3 202 -455z m-3310 -1823 c26 -14 56 -34 67 -46 21 -24 15
-36 -37 -73 -28 -20 -30 -20 -39 -4 -6 10 -25 24 -44 32 -77 32 -184 4 -222
-58 -99 -159 53 -345 223 -274 32 14 35 19 35 55 l0 41 -55 0 -55 0 0 50 0 50
110 0 110 0 0 -109 0 -109 -31 -26 c-56 -47 -90 -59 -180 -64 -72 -4 -93 -1
-137 18 -58 25 -122 89 -148 147 -25 57 -24 175 3 235 65 144 255 208 400 135z
m633 -27 l0 -50 -115 0 -115 0 0 -65 0 -65 105 0 105 0 0 -50 0 -50 -105 0
-105 0 0 -65 0 -65 120 0 120 0 0 -50 0 -50 -177 2 -178 3 -2 265 c0 146 1
271 3 278 2 9 46 12 174 12 l170 0 0 -50z m434 -125 c66 -96 121 -175 123
-175 2 0 3 78 2 173 l-1 172 56 3 56 3 0 -281 0 -280 -52 0 -53 0 -120 174
-120 174 -3 -174 -2 -174 -55 0 -55 0 0 280 0 280 53 0 52 -1 119 -174z m806
125 l0 -50 -114 0 -114 0 -4 -65 -3 -65 108 0 107 0 0 -50 0 -50 -107 0 -108
0 3 -65 4 -65 119 0 119 0 0 -50 0 -50 -177 2 -178 3 -3 265 c-1 146 0 270 3
277 3 10 47 13 175 13 l170 0 0 -50z m486 35 c79 -23 124 -81 124 -160 0 -75
-23 -115 -93 -160 -14 -9 -7 -23 44 -100 91 -138 90 -125 15 -125 l-66 0 -65
100 c-58 90 -67 100 -95 100 l-30 0 0 -100 0 -100 -60 0 -60 0 0 280 0 280
118 0 c75 0 136 -5 168 -15z m726 -255 c54 -146 98 -271 98 -278 0 -9 -15 -12
-56 -10 l-57 3 -20 58 -21 57 -106 0 -105 0 -20 -57 -20 -58 -57 -3 c-32 -2
-58 -1 -58 2 0 5 164 463 191 534 8 21 14 23 71 20 l63 -3 97 -265z m378 40
l0 -230 125 0 125 0 0 -50 0 -50 -180 0 -180 0 0 280 0 280 55 0 55 0 0 -230z
m-4649 -692 c24 -15 55 -38 68 -52 l24 -26 -28 -22 c-60 -48 -57 -47 -83 -17
-69 83 -221 41 -252 -70 -23 -83 3 -183 57 -218 60 -39 147 -31 199 18 l30 29
38 -33 38 -33 -25 -29 c-44 -53 -111 -80 -197 -80 -112 1 -186 48 -241 155
-29 57 -32 183 -5 243 25 56 85 117 141 144 68 33 172 29 236 -9z m580 17
c138 -47 211 -210 165 -369 -56 -191 -323 -251 -463 -104 -125 130 -92 375 62
455 68 36 162 43 236 18z m3060 -17 c24 -15 55 -38 68 -52 24 -26 24 -26 5
-41 -62 -50 -61 -50 -98 -17 -106 92 -256 8 -256 -143 1 -163 157 -238 271
-129 l25 24 37 -27 c20 -16 36 -32 37 -37 0 -20 -86 -86 -133 -102 -188 -63
-371 93 -354 302 8 108 64 186 169 235 61 28 169 22 229 -13z m1100 17 c104
-36 169 -128 177 -251 8 -122 -45 -225 -142 -277 -59 -31 -203 -32 -261 0 -95
51 -148 144 -149 258 0 132 75 240 194 276 43 13 134 10 181 -6z m1194 -4 c22
-10 51 -30 65 -45 l24 -27 -37 -37 -38 -37 -17 21 c-38 48 -102 58 -146 23
-55 -43 -21 -88 86 -114 107 -27 158 -81 158 -167 0 -64 -28 -108 -90 -140
-103 -54 -227 -30 -304 60 -19 22 -19 22 20 56 l39 34 33 -34 c51 -52 144 -58
177 -11 35 49 10 78 -88 103 -124 31 -171 84 -164 182 5 64 28 99 87 130 55
28 138 29 195 3z m-4804 -157 l114 -166 3 166 2 166 60 0 60 0 0 -275 0 -275
-52 0 -53 1 -120 175 -120 175 -3 -176 -2 -175 -55 0 -55 0 0 275 0 275 53 0
54 0 114 -166z m819 116 l0 -50 -80 0 -80 0 0 -225 0 -225 -55 0 -55 0 0 225
0 225 -80 0 -80 0 0 50 0 50 215 0 215 0 0 -50z m450 28 c25 -13 55 -39 68
-58 20 -30 23 -45 20 -102 -3 -58 -8 -72 -33 -99 -17 -17 -40 -35 -53 -40 -22
-9 -21 -11 48 -114 38 -57 70 -107 70 -110 0 -3 -29 -5 -64 -5 l-64 0 -62 100
c-59 94 -65 100 -97 100 l-33 0 0 -100 0 -100 -55 0 -55 0 0 275 0 275 133 0
c118 0 138 -3 177 -22z m573 5 c3 -10 46 -128 96 -263 50 -135 91 -251 91
-257 0 -9 -17 -13 -54 -13 l-53 0 -20 53 -20 52 -110 3 -109 3 -18 -56 -17
-55 -61 0 c-53 0 -59 2 -53 18 4 9 47 125 95 257 48 132 91 248 95 258 6 14
19 17 70 17 51 0 64 -3 68 -17z m1307 -33 l0 -50 -80 0 -80 0 0 -225 0 -225
-55 0 -55 0 0 225 0 225 -80 0 -80 0 0 50 0 50 215 0 215 0 0 -50z m1119 25
c54 -32 75 -67 79 -138 3 -53 0 -67 -20 -97 -13 -19 -37 -44 -54 -55 l-31 -21
68 -104 68 -105 -56 -3 c-31 -2 -61 -1 -67 1 -6 3 -38 48 -71 101 -56 89 -62
96 -92 96 l-33 0 0 -100 0 -100 -55 0 -55 0 0 276 0 276 143 -4 c120 -2 147
-6 176 -23z"/>
<path d="M4080 5490 l0 -223 133 6 c196 10 266 37 306 120 14 30 21 63 21 105
0 100 -32 152 -115 188 -30 13 -78 19 -192 22 l-153 4 0 -222z"/>
<path d="M5670 3615 l0 -75 59 0 c48 0 65 5 85 23 39 34 43 71 12 101 -22 23
-34 26 -91 26 l-65 0 0 -75z"/>
<path d="M6368 3572 c-15 -42 -30 -85 -33 -94 -6 -16 0 -18 65 -18 53 0 71 3
68 13 -3 6 -18 49 -34 95 -16 45 -31 82 -34 82 -3 0 -17 -35 -32 -78z"/>
<path d="M2700 2792 c-119 -65 -119 -275 0 -334 76 -38 174 -9 210 63 29 56
26 173 -6 215 -50 68 -138 92 -204 56z"/>
<path d="M6865 2796 c-112 -49 -129 -252 -27 -325 76 -54 192 -29 232 50 26
51 30 151 7 196 -42 80 -133 114 -212 79z"/>
<path d="M4490 2725 l0 -77 70 4 c77 4 96 16 106 64 4 21 0 37 -14 54 -17 21
-30 25 -91 28 l-71 4 0 -77z"/>
<path d="M5162 2678 c-17 -46 -33 -91 -37 -100 -6 -16 0 -18 64 -18 48 0 71 4
71 12 0 10 -59 179 -65 186 -2 2 -16 -34 -33 -80z"/>
<path d="M7480 2725 l0 -75 55 0 c71 0 111 20 120 59 13 61 -26 91 -121 91
l-54 0 0 -75z"/>
</g>
</svg>
